<svg width="167" height="110" viewBox="0 0 167 110" fill="none" xmlns="http://www.w3.org/2000/svg">
<rect width="167" height="110" fill="#310E58"/>
<path d="M84 35C72.9545 35 64 43.9543 64 55C64 66.0457 72.9545 75 84 75C95.0455 75 104 66.0457 104 55C104 43.9543 95.0455 35 84 35ZM90.9125 56.0602L80.9125 62.3102C80.7102 62.4365 80.4801 62.5 80.25 62.5C80.0416 62.5 79.8328 62.4481 79.6439 62.3431C79.2466 62.1228 79 61.7047 79 61.25V48.75C79 48.2953 79.2466 47.8772 79.6439 47.6569C80.0413 47.4353 80.5271 47.4487 80.9125 47.6898L90.9125 53.9398C91.2778 54.1687 91.5 54.5691 91.5 55C91.5 55.4309 91.2778 55.8313 90.9125 56.0602Z" fill="#561F94"/>
</svg>
