<svg width="1854" height="685" viewBox="0 0 1854 685" fill="none" xmlns="http://www.w3.org/2000/svg">
<path fill-rule="evenodd" clip-rule="evenodd" d="M935.286 684.754C964.688 662.218 993.356 640.87 1020.73 620.741C1057.06 593.848 1094.76 567.411 1131.18 541.873L1134.82 539.316L1137.28 537.582C1217.94 480.586 1301.37 421.636 1377.64 356.474C1440.54 302.353 1475.64 242.381 1482.47 177.533C1490.27 99.5209 1451.75 33.6979 1384.46 9.31904C1372.29 4.98064 1359.97 1.95282 1347.63 0H1268.7C1258.14 1.41261 1247.78 3.27406 1237.7 5.41844C1240.44 3.61355 1243.15 1.80742 1245.84 0H1000.71C997.789 1.63549 994.872 3.27872 991.964 4.93091C862.756 78.0675 748.176 149.254 641.884 222.39C506.337 315.518 385.418 411.083 278.151 510.061C284.346 504.192 290.323 498.105 296.228 492.091C299.153 489.112 302.061 486.152 304.968 483.244C359.089 427.66 412.235 369.639 463.431 313.08L463.688 312.798C561.015 206.459 661.013 97.2028 770.379 0H599.083C570.049 29.0178 541.897 58.1071 514.626 86.8438C473.182 130.726 432.226 175.583 392.732 219.465C337.636 279.924 281.077 341.847 223.055 401.331C166.496 459.353 119.201 507.623 66.0551 551.017C42.6642 570.099 20.8275 584.864 0 595.566V684.754H86.0807C106.846 670.062 126.135 654.228 144.067 638.781C156.741 628.057 168.928 616.846 181.114 605.635L181.123 605.626C155.689 631.823 131.051 658.153 107.209 684.754H265.62C350.237 600.145 445.272 517.43 548.757 439.362C648.222 363.788 755.489 291.139 876.408 217.515C879.09 215.808 881.772 214.223 884.453 212.639C887.135 211.054 889.817 209.469 892.499 207.763C779.868 320.881 698.93 459.353 619.943 594.899C618.486 597.386 617.028 599.877 615.568 602.372C599.61 629.629 583.401 657.316 566.878 684.754H694.476C699.063 676.908 703.634 669.059 708.194 661.21C741.837 603.188 776.943 543.704 813.511 487.632C898.837 357.449 981.237 268.71 1073.88 208.251C1125.07 175.095 1178.22 151.204 1232.34 138.039C1253.31 133.164 1276.71 128.775 1299.14 128.775C1324 128.775 1346.92 134.139 1360.09 149.741C1392.27 188.747 1339.12 241.406 1322.05 256.521C1282.07 292.114 1236.73 324.782 1192.85 355.986C1186.26 360.862 1179.56 365.616 1172.86 370.37C1166.15 375.124 1159.45 379.878 1152.86 384.754C1131.41 400.356 1109.96 415.959 1088.02 432.049L1086.32 433.285C987.87 505.062 886.094 579.263 789.62 658.284C778.872 667.159 768.316 675.979 757.947 684.754H935.286ZM0 102.71V256.57C38.3833 224.471 81.0838 193.848 127.977 164.856C240.771 95.4965 364.26 44.5049 489.132 0H161.653C102.394 32.3568 48.7568 66.4878 0 102.71Z" fill="#382ADD"/>
<path fill-rule="evenodd" clip-rule="evenodd" d="M408.703 684.754C388.538 671.395 371.306 654.182 359.581 632.93C340.047 597.308 337.736 555.403 335.442 513.802C332.869 467.144 330.317 420.868 303.51 384.266C282.346 355.406 249.912 338.409 217.561 321.455C184.324 304.037 151.174 286.664 130.42 256.521C101.165 214.102 106.041 152.179 138.221 112.198C170.401 71.7291 226.473 53.2012 277.181 61.9776C299.164 65.6931 319.968 73.9311 340.841 82.1963C352.837 86.9464 364.856 91.7055 377.134 95.6204C397.125 101.959 419.553 106.347 440.519 104.397C438.902 121.371 435.946 138.344 433.038 155.041C432.438 158.488 431.839 161.923 431.255 165.344C424.917 202.887 420.041 241.894 428.817 278.949C437.594 316.005 462.948 351.599 500.491 363.3C530.026 372.422 560.335 350.976 586.593 332.398C589.811 330.12 592.968 327.886 596.056 325.757C606.295 318.443 617.022 310.154 611.171 299.428C577.041 236.043 606.783 155.592 657.491 103.909C695.072 65.6056 742.294 38.5499 789.63 11.4289C796.259 7.63088 802.89 3.83162 809.497 0H0V336.381C25.9616 350.445 54.8212 358.367 83.8588 366.338C99.6346 370.668 115.463 375.013 130.908 380.366C179.665 396.943 229.886 431.561 236.224 482.757C241.1 521.275 219.159 558.331 193.805 587.586C186.824 595.775 179.511 603.705 172.21 611.621C152.997 632.455 133.876 653.189 121.156 678.275C120.097 680.412 119.096 682.572 118.155 684.754H408.703ZM991.162 0C976.28 12.0735 960.791 23.5812 945.314 35.0792C932.291 44.7542 919.278 54.4225 906.643 64.4155C882.752 83.431 857.885 107.322 855.447 137.552C853.497 157.543 861.298 177.046 870.562 194.599C872.234 197.765 873.953 200.932 875.676 204.107C883.506 218.532 891.432 233.135 895.429 248.72C900.304 268.223 897.866 290.651 883.727 304.791C907.545 303.254 925.31 310.193 945.845 318.214C951.372 320.373 957.101 322.61 963.202 324.782C996.845 295.527 1014.4 248.72 1008.06 204.838C1006.88 196.765 1005.01 188.751 1003.14 180.754C999.589 165.567 996.055 150.445 997.332 135.114C999.77 103.909 1020.74 77.5801 1042.19 54.6639C1053.23 42.8062 1064.55 31.2732 1075.85 19.7584C1082.3 13.1853 1088.74 6.6182 1095.13 0H991.162Z" fill="#CA9FE0"/>
<path fill-rule="evenodd" clip-rule="evenodd" d="M48.2299 684.753H0V481.543C11.7535 487.481 22.8466 494.692 32.9055 503.233C58.2595 525.174 76.2998 557.354 77.7625 590.997C79.1332 624.715 65.2449 655.043 48.2299 684.753Z" fill="#CA9FE0"/>
<path fill-rule="evenodd" clip-rule="evenodd" d="M736.224 0C631.683 86.4204 527.431 173.4 425.877 263.348C421.976 235.068 424.902 205.814 428.803 177.534C454.141 149.45 479.479 121.379 504.813 93.3122C532.891 62.2063 560.963 31.1059 589.025 0H736.224Z" fill="#AF89C2"/>
<path fill-rule="evenodd" clip-rule="evenodd" d="M0 336.65V259.348C40.5846 213.588 83.3493 169.738 127.478 127.798C105.049 167.292 104.074 219.95 129.916 257.493C150.471 287.64 183.435 304.95 216.381 322.25C218.603 323.417 220.825 324.584 223.043 325.754C218.655 330.874 214.145 335.993 209.635 341.113C205.125 346.232 200.615 351.352 196.226 356.472C190.619 362.81 185.134 369.148 179.649 375.487C174.164 381.825 168.678 388.164 163.071 394.503C152.344 388.652 141.618 384.263 130.404 380.363C114.959 375.011 99.1306 370.666 83.3549 366.335C54.505 358.416 25.8308 350.545 0 336.65Z" fill="#AF89C2"/>
<path fill-rule="evenodd" clip-rule="evenodd" d="M389.369 684.755H117.162C118.103 682.573 119.103 680.413 120.162 678.277C132.96 652.681 152.239 631.75 171.571 610.761C178.754 602.963 185.944 595.157 192.811 587.1C203.538 573.935 214.265 559.796 222.066 544.193C256.684 509.088 291.79 474.957 327.383 441.314C332.508 464.742 333.922 489.682 335.341 514.688C337.701 556.297 340.072 598.092 359.563 633.42C368.339 649.997 381.504 664.625 396.131 676.327C393.879 679.137 391.625 681.947 389.369 684.755Z" fill="#AF89C2"/>
<path fill-rule="evenodd" clip-rule="evenodd" d="M510.474 0H268.216C247.5 18.0659 226.897 36.263 206.47 54.6647C202.326 58.3215 198.181 62.1002 194.037 65.879C189.892 69.6577 185.748 73.4364 181.604 77.0932C210.371 61.9783 244.501 56.615 276.681 62.4659C298.665 66.1814 319.469 74.4194 340.341 82.6846C352.337 87.4347 364.356 92.1939 376.634 96.1088C389.799 100.497 403.939 103.422 418.078 104.885C437.83 82.4516 457.703 59.896 477.576 37.3405C488.549 24.8868 499.522 12.4331 510.474 0Z" fill="#AF89C2"/>
<path d="M205.494 424.737C213.295 432.539 220.121 441.315 224.997 450.579C249.376 426.688 273.755 402.796 298.621 379.393C290.333 369.153 280.581 360.865 269.854 353.063C250.351 374.517 230.848 395.97 211.345 417.911C209.395 419.862 207.444 422.299 205.494 424.737Z" fill="#AF89C2"/>
<path d="M906.148 64.4198C882.744 82.9477 858.853 105.864 854.952 135.118C887.132 100.013 919.312 64.9073 951.493 29.8018C936.378 41.5036 920.775 52.7179 906.148 64.4198Z" fill="#AF89C2"/>
<path d="M451.723 328.195C463.912 344.285 480.49 357.45 500.48 363.3C533.636 373.54 567.766 345.26 596.046 325.757C606.285 318.443 617.011 310.154 611.16 299.428C594.095 267.735 593.12 232.142 602.384 198.012C551.188 240.919 500.968 284.313 451.723 328.195Z" fill="#AF89C2"/>
<path fill-rule="evenodd" clip-rule="evenodd" d="M1095.1 0H1070.31C1004.98 68.3864 940.501 137.788 876.887 207.764C884.2 220.928 891.027 234.581 894.927 249.208C899.803 268.711 897.365 291.14 883.225 305.279C907.044 303.743 924.808 310.681 945.343 318.702C950.871 320.861 956.599 323.098 962.7 325.27C996.343 296.015 1013.9 249.208 1007.56 205.326C1006.38 197.253 1004.51 189.239 1002.64 181.242C999.088 166.055 995.553 150.934 996.831 135.602C999.269 104.398 1020.23 78.0684 1041.69 55.1522C1052.73 43.2947 1064.05 31.7618 1075.35 20.2472C1081.96 13.5123 1088.56 6.7837 1095.1 0Z" fill="#AF89C2"/>
<path d="M913.464 202.397C904.2 188.745 893.961 174.605 892.011 158.515C889.573 137.062 902.737 116.584 918.828 101.956C934.918 87.3291 954.421 76.6024 970.023 61.9751C987.576 45.3974 1000.25 23.9441 1019.27 9.80432C1023.66 6.39128 1030 3.46575 1034.87 6.39122C1039.75 9.31668 1040.23 16.1428 1037.8 21.0185C1035.36 25.8943 1030.48 29.3074 1026.58 32.2328C1006.59 47.3477 990.014 65.8757 977.824 87.8167C969.048 102.932 962.71 120.484 966.123 137.55C969.536 155.102 983.188 169.242 989.039 186.307C994.89 203.86 991.964 224.826 979.775 238.966C970.998 248.717 945.644 263.344 932.967 252.618C927.604 248.229 929.067 238.478 927.604 232.627C925.166 220.925 919.315 211.174 913.464 202.397Z" fill="#D2B8E0"/>
<path fill-rule="evenodd" clip-rule="evenodd" d="M397.603 0H4.95749C3.2825 2.00775 1.62957 4.03092 0 6.07059V291.834C17.1408 304.297 37.2489 312.421 58.2545 318.93C64.1055 320.881 70.4439 321.856 76.2949 318.443C89.4595 311.129 89.4595 296.014 87.5092 281.387C85.9643 271.152 83.4252 261.453 80.8914 251.774C77.0276 237.014 73.1763 222.303 72.8818 205.812C71.4191 150.716 89.947 97.0827 127.49 56.1263C156.933 23.6246 237.953 27.107 297.179 29.6527C313.474 30.3531 328.119 30.9826 339.587 30.7722C358.632 30.5311 357.651 27.906 356.331 24.3703C354.98 20.7552 353.274 16.1882 372.254 12.2443C381.935 10.218 390.577 6.00858 397.603 0Z" fill="#D2B8E0"/>
<path fill-rule="evenodd" clip-rule="evenodd" d="M352.558 684.753H208.529C208.962 681.814 209.574 678.84 210.375 675.836C215.251 657.309 227.928 641.706 239.63 627.566C252.307 612.451 264.984 597.336 271.323 578.809C277.661 558.818 275.223 536.389 264.984 518.349C264.119 516.763 263.169 515.22 262.222 513.682C259.965 510.017 257.725 506.38 256.695 502.259C255.232 496.408 257.183 489.094 262.546 486.656C267.909 484.219 273.76 487.144 278.149 490.557C294.239 503.234 299.602 525.175 301.065 545.653C301.51 551.882 301.639 558.156 301.768 564.419C302.063 578.75 302.357 593.029 306.428 606.6C311.699 624.521 322.54 639.656 333.478 654.925C337.718 660.843 341.972 666.782 345.922 672.911C348.28 676.701 350.522 680.666 352.558 684.753Z" fill="#D2B8E0"/>
<path fill-rule="evenodd" clip-rule="evenodd" d="M473.659 228.73C467.808 280.413 485.361 325.758 530.218 355.5C547.283 367.202 569.224 340.385 573.612 321.857C577.513 304.305 573.612 284.314 567.762 266.274C566.468 262.287 565.056 258.347 563.646 254.413C558.676 240.547 553.73 226.75 554.109 211.177C554.597 182.898 565.324 159.007 578.976 133.165C610.755 72.6129 651.234 33.9992 706.076 0H456.34C462.346 13.0484 470.553 24.848 478.772 36.6645C489.315 51.8226 499.877 67.0087 505.839 84.8949C514.616 110.736 508.277 134.628 499.501 159.007C496.426 167.548 492.692 175.491 489.014 183.318C482.193 197.83 475.56 211.943 473.659 228.73Z" fill="#D2B8E0"/>
<path fill-rule="evenodd" clip-rule="evenodd" d="M525.664 186.49C515.727 209.358 505.732 232.359 504.388 257.007C503.412 275.048 509.263 306.253 527.791 315.517C537.543 320.88 541.931 315.517 539.981 305.765C538.518 298.939 536.202 292.357 533.886 285.774C531.57 279.192 529.254 272.61 527.791 265.784C521.94 236.529 531.204 205.812 543.881 178.507C548.107 169.406 552.712 160.467 557.317 151.528C566.527 133.65 575.736 115.773 581.912 96.5945C583.953 90.2326 585.698 83.6639 587.446 77.0847C592.798 56.9397 598.176 36.6969 612.142 21.9952C621.87 11.6778 634.628 5.45949 647.937 0H521.537C521.504 0.504454 521.475 1.0101 521.453 1.51692C520.656 20.634 527.378 38.5944 534.139 56.6578C539.793 71.7651 545.474 86.9445 546.807 102.933C549.245 129.75 539.006 156.079 528.279 180.458C527.412 182.468 526.538 184.478 525.664 186.49Z" fill="#EDCFFC"/>
<path d="M938.325 188.747C932.474 178.995 923.21 171.682 918.822 161.443C915.409 153.154 915.896 142.915 918.822 134.626C921.747 126.337 928.086 118.536 935.399 113.172C938.325 110.735 942.226 108.784 945.151 110.735C948.076 112.685 948.564 116.585 947.589 120.486C946.614 127.312 943.688 134.138 943.688 140.964C943.688 149.741 948.564 158.029 953.927 164.856C959.291 171.682 965.629 178.508 969.53 186.309C973.43 194.11 974.406 202.399 974.893 211.175C975.381 220.439 974.406 230.679 967.58 237.505C960.753 244.818 934.912 246.769 938.325 231.654C939.788 224.828 943.201 219.952 943.201 212.638C944.663 203.862 942.713 195.573 938.325 188.747Z" fill="#EDCFFC"/>
<path fill-rule="evenodd" clip-rule="evenodd" d="M147.777 0C147.679 0.0185893 147.582 0.0372309 147.484 0.0559255C119.692 5.41927 92.8753 16.146 71.4219 34.1863C49.9685 52.2267 34.366 78.0682 31.9281 106.348C30.7663 120.289 32.8158 134.231 34.8575 148.12C37.1 163.375 39.3332 178.566 37.2915 193.624C36.3163 202.4 33.3909 211.177 28.5151 218.49C23.1517 225.804 15.3505 231.168 6.08655 231.655C4.01842 231.835 1.98345 231.749 0 231.435V25.3523C2.59355 22.6808 5.27805 20.0983 8.03683 17.6087C15.0635 11.2675 22.4516 5.46855 30.0953 0H147.777Z" fill="#EDCFFC"/>
<path fill-rule="evenodd" clip-rule="evenodd" d="M310.774 684.752H247.824C251.323 665.184 261.473 645.496 273.757 634.878C275.708 633.415 277.658 631.952 279.608 631.465C285.947 630.49 290.335 637.316 292.773 643.167C295.87 649.98 298.77 656.793 301.724 663.731C303.42 667.717 305.134 671.743 306.913 675.834C308.231 678.801 309.55 681.767 310.774 684.752Z" fill="#EDCFFC"/>
<path d="M666.257 237.506C635.052 184.36 689.661 137.065 732.568 116.586C762.31 102.447 811.068 89.2821 826.67 57.5896C829.108 52.7138 820.819 43.9374 815.943 46.8629C804.242 53.689 794.978 64.4157 783.763 72.2169C772.549 80.0181 760.36 86.8443 748.17 93.6703C725.254 106.347 701.363 118.537 681.86 136.577C653.58 162.906 640.903 204.838 665.282 237.993C666.257 238.481 666.745 238.481 666.257 237.506Z" fill="#6F74F8"/>
<path fill-rule="evenodd" clip-rule="evenodd" d="M1056.81 195.573C1062.17 224.828 1055.83 251.157 1040.72 276.511C1039.74 277.486 1037.31 277.486 1038.77 276.023C1054.83 240.232 1046.27 209.191 1036.68 174.365C1036.08 172.186 1035.47 169.992 1034.87 167.781C1028.04 143.89 1029.99 121.461 1041.69 99.0329C1055.56 72.4949 1077.52 52.9908 1099.51 33.4502C1111.61 22.7033 1123.72 11.9453 1134.51 0H1151.64C1139.95 17.2806 1123.84 31.5382 1107.68 45.8353C1089.53 61.9057 1071.32 78.026 1059.25 98.5453C1042.18 127.69 1047.5 152.214 1053.68 180.616C1054.73 185.474 1055.81 190.445 1056.81 195.573Z" fill="#6F74F8"/>
<path d="M62.1561 408.646C108.476 419.86 166.01 426.199 180.637 480.808C195.265 534.929 140.656 570.522 122.616 615.379C121.641 617.817 127.491 614.891 127.979 613.916C154.308 574.422 208.429 527.127 193.314 473.494C178.199 421.323 109.451 408.646 63.1313 407.671C63.1313 407.671 61.6686 408.646 62.1561 408.646Z" fill="#6F74F8"/>
<path d="M477.572 678.277C442.467 668.037 417.113 642.196 402.973 608.553C389.808 576.86 393.709 540.292 380.545 509.575C379.569 507.137 372.256 503.724 371.281 508.112C363.479 544.193 382.982 595.876 401.51 626.593C418.576 654.385 444.417 675.839 476.597 681.202C479.523 681.689 480.01 679.252 477.572 678.277Z" fill="#6F74F8"/>
<path d="M174.789 120.491C202.093 71.7331 258.652 86.3605 299.609 104.888C329.351 118.541 359.093 137.556 393.224 133.655C394.199 133.655 402 130.242 401.025 128.78C392.248 121.954 380.547 120.491 370.307 116.59C355.68 111.714 341.54 105.376 327.401 99.525C302.534 89.2859 276.693 79.5344 249.388 79.0468C217.696 78.5592 184.053 92.2114 169.913 121.954C168.938 122.929 174.301 121.954 174.789 120.491Z" fill="#6F74F8"/>
<path d="M1084.11 487.146C1129.95 458.379 1166.51 413.522 1185.53 362.813C1208.45 301.866 1197.72 235.068 1219.66 173.146C1220.15 171.196 1212.35 175.096 1211.86 176.071C1176.75 222.391 1186.02 283.826 1177.24 337.947C1167.49 399.382 1133.85 450.09 1083.63 486.658C1082.16 487.633 1083.14 487.633 1084.11 487.146Z" fill="#6F74F8"/>
<path d="M882.263 504.699C881.288 504.211 880.8 503.724 879.825 503.724C875.437 503.236 872.512 507.624 871.049 511.038C870.074 512.988 869.586 517.376 872.024 518.351C872.024 518.351 872.024 518.351 872.512 518.351C873.974 520.789 876.9 521.764 879.338 520.789C880.8 520.301 881.776 519.326 882.751 517.864C886.164 514.451 886.651 507.137 882.263 504.699Z" fill="white"/>
<path d="M886.163 534.925C882.75 536.387 879.824 539.801 879.337 543.701C878.849 546.139 879.824 549.552 882.262 551.015C882.75 551.502 883.237 551.503 883.725 551.503C884.212 551.99 885.188 552.965 886.65 552.965C889.088 553.453 891.526 551.015 892.989 549.065C894.452 546.627 895.427 543.701 894.939 540.776C893.964 536.875 890.063 533.462 886.163 534.925Z" fill="white"/>
<path d="M753.058 252.618C759.884 254.569 767.686 254.081 774.999 254.569C784.263 255.056 793.527 255.544 802.791 257.007C799.378 269.196 796.453 281.386 793.04 293.575C791.577 292.112 789.626 291.137 787.189 290.65C776.949 289.187 759.884 299.914 770.123 310.64C774.512 315.516 781.338 315.516 787.189 314.053C794.502 311.615 799.378 305.277 802.791 298.451C807.179 288.699 809.13 277.485 812.055 266.758C814.981 256.032 818.394 245.305 820.831 234.091C821.319 231.653 820.344 229.215 817.418 229.215C796.94 230.678 775.974 230.678 755.496 229.215C752.083 229.215 748.67 232.628 748.182 235.553C746.232 243.842 744.282 252.619 742.332 260.907C740.869 269.196 739.894 277.485 737.456 285.286C737.456 285.774 736.968 286.261 736.968 287.236C733.555 286.261 731.117 284.799 727.704 283.823C724.291 283.336 720.878 283.336 717.465 284.799C712.102 287.236 706.251 293.575 708.201 299.426C710.151 304.789 716.49 306.74 721.853 306.252C726.241 305.764 731.117 303.327 733.555 299.426C737.456 296.988 740.381 292.6 742.332 288.212C746.232 279.923 747.695 270.659 750.133 262.37C751.595 259.445 752.083 256.032 753.058 252.618ZM777.437 247.255C769.636 247.255 761.835 246.768 754.521 247.743C755.009 244.817 755.984 242.379 756.471 239.454C773.049 240.917 790.114 241.404 807.179 241.404C806.692 242.867 806.204 244.817 805.716 246.28C795.965 247.255 786.701 247.255 777.437 247.255Z" fill="white"/>
<path d="M1166.03 153.643C1172.86 147.793 1181.15 140.966 1190.41 140.966C1193.34 140.966 1198.21 139.991 1198.21 136.091C1198.21 132.678 1192.85 131.702 1190.41 131.215C1180.17 130.727 1170.42 134.628 1162.13 140.479C1153.84 146.817 1147.5 155.594 1138.73 160.957C1136.29 162.42 1132.88 163.883 1129.46 164.37V163.883C1128.98 158.032 1124.1 153.643 1118.74 151.693C1112.4 147.792 1100.7 150.23 1102.65 158.032C1103.62 163.883 1111.91 169.246 1116.79 170.709C1119.22 171.684 1121.66 171.684 1124.1 171.196C1129.46 171.684 1135.31 170.709 1140.68 168.758C1150.43 165.833 1158.23 159.982 1166.03 153.643Z" fill="white"/>
<path d="M250.371 221.904C248.909 219.466 246.958 219.466 244.52 220.441C243.545 220.929 242.083 221.417 241.107 221.904C240.132 217.516 239.157 213.615 237.207 209.715C236.232 207.764 234.769 210.69 234.769 211.665C233.794 216.053 233.794 220.929 233.306 225.317C230.381 226.78 227.455 227.755 224.53 229.218C224.53 224.83 225.017 215.566 221.604 212.153C221.117 211.665 220.142 212.64 220.142 213.128C217.216 218.979 217.704 226.78 217.216 233.118C212.828 235.556 208.44 238.482 204.539 241.895C203.076 242.87 201.126 249.696 204.539 250.184C208.44 250.184 212.828 249.696 216.729 248.721C216.729 250.671 216.729 252.621 216.729 254.572C216.729 258.472 216.729 262.373 216.241 266.274C212.34 268.711 208.44 271.637 206.489 275.538C206.002 276.513 205.514 278.463 206.489 278.951C208.927 279.926 211.365 278.951 213.803 278.463C214.778 278.463 215.266 277.975 216.241 277.975C216.241 284.802 215.753 291.628 215.753 298.454C215.753 305.28 227.455 298.454 227.455 293.09C227.455 286.752 226.968 280.901 226.968 274.562C229.406 273.587 232.331 272.612 234.769 271.637C234.769 273.1 234.769 275.05 234.769 276.513C234.769 282.851 233.306 290.165 234.769 296.503C236.232 301.867 242.083 294.553 242.57 292.115C244.52 285.289 243.545 277.975 243.545 271.149C243.545 270.174 243.545 268.711 243.545 267.736C244.033 267.736 245.008 267.249 245.496 266.761C251.834 264.811 253.784 248.233 246.471 251.159C245.496 251.646 244.52 252.134 243.545 252.621C243.545 251.646 243.545 250.671 243.545 249.696C243.545 246.771 243.545 243.357 243.545 240.432C245.496 239.944 246.958 238.969 248.421 237.507C251.834 233.606 252.809 226.78 250.371 221.904ZM234.281 254.572C234.281 255.059 234.281 256.034 234.281 256.522C231.356 257.985 228.918 258.96 225.992 260.91C225.992 257.497 225.993 254.084 225.505 250.184C225.505 248.721 225.505 247.258 225.505 246.283C228.43 245.308 230.868 244.333 233.794 243.357C233.794 246.77 234.281 250.671 234.281 254.572Z" fill="white"/>
<path d="M985.121 641.363L986.096 643.8C986.583 644.776 987.559 645.751 988.534 645.751L990.972 646.238C993.897 646.726 994.872 650.139 992.922 652.089L990.972 654.04C989.996 655.015 989.996 655.99 989.996 656.965L990.484 659.403C990.972 662.328 988.046 664.279 985.608 663.304L983.17 662.328C982.195 661.841 980.733 661.841 979.757 662.328L977.32 663.304C974.882 664.766 971.956 662.328 972.444 659.403L972.931 656.965C972.931 655.99 972.931 654.527 971.956 654.04L970.006 652.089C968.056 650.139 969.031 646.726 971.956 646.238L974.394 645.751C975.369 645.751 976.344 644.776 976.832 643.8L977.807 641.363C980.245 638.925 983.658 638.925 985.121 641.363Z" fill="#92D35F"/>
<path d="M795.954 422.299L796.929 424.736C797.416 425.712 798.392 426.687 799.367 426.687L801.805 427.174C804.73 427.662 805.705 431.075 803.755 433.025L801.805 434.976C800.829 435.951 800.829 436.926 800.829 437.901L801.317 440.339C801.805 443.264 798.879 445.215 796.441 444.24L794.003 443.264C793.028 442.777 791.566 442.777 790.59 443.264L788.153 444.24C785.715 445.702 782.789 443.264 783.277 440.339L783.764 437.901C783.764 436.926 783.764 435.463 782.789 434.976L780.839 433.025C778.889 431.075 779.864 427.662 782.789 427.174L785.227 426.687C786.202 426.687 787.177 425.712 787.665 424.736L788.64 422.299C790.59 419.373 794.491 419.373 795.954 422.299Z" fill="#92D35F"/>
<path d="M1243.06 25.9017L1244.04 28.3395C1244.53 29.3147 1245.5 30.2899 1246.48 30.2899L1248.92 30.7774C1251.84 31.265 1252.82 34.6781 1250.87 36.6284L1248.92 38.5787C1247.94 39.5538 1247.94 40.529 1247.94 41.5042L1248.43 43.9421C1248.92 46.8675 1245.99 48.8178 1243.55 47.8426L1241.11 46.8675C1240.14 46.3799 1238.68 46.3799 1237.7 46.8675L1235.26 47.8426C1232.83 49.3054 1229.9 46.8675 1230.39 43.9421L1230.87 41.5042C1230.87 40.529 1230.87 39.0663 1229.9 38.5787L1227.95 36.6284C1226 34.6781 1226.97 31.265 1229.9 30.7774L1232.34 30.2899C1233.31 30.2899 1234.29 29.3147 1234.78 28.3395L1235.75 25.9017C1238.19 23.4638 1242.09 23.4638 1243.06 25.9017Z" fill="#92D35F"/>
<path d="M102.133 498.361L103.109 500.799C103.596 501.774 104.571 502.749 105.546 502.749L107.984 503.236C110.91 503.724 111.885 507.137 109.935 509.087L107.984 511.038C107.009 512.013 107.009 512.988 107.009 513.963L107.497 516.401C107.984 519.327 105.059 521.277 102.621 520.302L100.183 519.327C99.208 518.839 97.7453 518.839 96.7701 519.327L94.3322 520.302C91.8943 521.764 88.9689 519.327 89.4565 516.401L89.944 513.963C89.944 512.988 89.944 511.525 88.9689 511.038L87.0186 509.087C85.0683 507.137 86.0434 503.724 88.9689 503.236L91.4068 502.749C92.3819 502.749 93.3571 501.774 93.8447 500.799L94.8198 498.361C97.2577 495.923 100.671 495.923 102.133 498.361Z" fill="#92D35F"/>
<path d="M1098.26 328.195L1089.48 360.375L1050.96 359.888L1098.26 328.195Z" fill="#92D35F"/>
<path d="M390.783 187.773C390.783 196.062 383.956 202.888 375.668 202.888C367.379 202.888 360.553 196.062 360.553 187.773C360.553 179.484 367.379 172.658 375.668 172.658C383.956 172.658 390.783 179.484 390.783 187.773Z" fill="#92D35F"/>
<path d="M795.468 165.346C795.468 173.635 788.642 180.461 780.353 180.461C772.064 180.461 765.238 173.635 765.238 165.346C765.238 157.058 772.064 150.231 780.353 150.231C788.642 150.231 795.468 157.058 795.468 165.346Z" fill="#92D35F"/>
<path d="M820.336 615.378C820.336 623.667 813.51 630.493 805.221 630.493C796.933 630.493 790.106 623.667 790.106 615.378C790.106 607.09 796.933 600.264 805.221 600.264C813.51 600.264 820.336 607.09 820.336 615.378Z" fill="#92D35F"/>
<path fill-rule="evenodd" clip-rule="evenodd" d="M415.75 0H279.342C293.209 16.4549 310.401 28.8523 335.203 31.2603C352.755 32.723 370.308 28.8224 386.398 20.5336C397.287 14.8236 406.946 7.84768 415.75 0Z" fill="#D2B8E0"/>
<path opacity="0.5" d="M143.694 181.182C143.694 181.182 144.181 180.695 143.694 181.182C145.644 178.744 147.107 176.794 149.057 174.844C149.545 174.356 149.545 174.356 150.032 173.869C151.495 172.406 152.957 170.943 154.42 169.481C157.833 166.068 161.246 163.142 165.146 160.705C172.947 155.341 180.748 152.416 189.037 151.928C196.838 151.441 205.127 152.904 212.927 156.804C220.728 160.217 228.529 166.068 235.843 172.406C243.156 178.744 249.982 186.058 256.808 194.346C270.46 210.436 283.136 227.988 294.35 246.028C340.668 318.674 372.36 401.56 420.141 482.982C432.33 503.46 445.494 523.45 460.121 542.952C474.748 561.967 491.325 582.445 515.215 600.972C526.917 610.236 541.056 618.524 557.146 624.375C561.046 625.838 565.434 627.3 569.822 628.276C574.21 629.251 578.598 630.226 582.986 631.201C591.762 632.664 601.026 633.151 610.29 633.151C628.817 632.664 647.832 628.276 666.359 618.037C675.623 613.161 684.887 606.335 692.688 598.534C696.588 594.634 700.488 590.246 703.901 585.37C707.314 580.982 710.24 576.107 712.677 571.231C722.916 551.729 726.817 531.251 727.304 513.699C727.792 495.659 725.842 479.569 722.916 464.943C721.941 461.042 721.454 458.117 720.478 454.704C719.503 451.291 719.016 447.878 718.041 444.953C716.09 438.614 714.14 431.788 712.19 425.45C710.24 419.112 707.314 412.774 704.877 406.435C702.439 400.097 699.513 393.759 696.588 387.908C685.374 363.53 672.21 341.59 659.533 321.112C651.732 308.923 643.931 296.734 635.643 285.52C637.106 281.62 638.081 278.207 639.056 273.819C642.956 256.267 641.006 235.789 628.329 222.625C617.603 211.411 601.026 207.51 585.424 207.51C562.509 207.998 540.568 215.799 521.554 228.476C502.539 240.665 486.449 257.242 472.31 274.794C458.658 291.858 447.444 310.386 450.37 333.789C453.295 358.654 469.872 378.644 495.713 381.57C505.952 382.545 516.678 381.57 526.429 378.157C533.255 385.958 540.081 394.246 546.419 402.047C559.096 418.137 571.285 433.251 580.549 448.853C585.424 456.654 589.812 464.455 593.225 472.256C595.175 476.157 597.126 480.057 598.588 484.445C599.563 486.395 600.051 488.346 601.026 490.783L602.976 496.634C604.927 502.485 606.389 508.336 607.364 512.724C607.364 513.699 607.852 515.649 607.852 515.649C607.852 514.674 607.364 513.699 607.364 513.211C607.364 513.699 607.364 514.186 607.364 514.186C607.364 514.674 607.364 515.161 607.364 515.649C608.339 523.937 602.001 526.375 601.026 526.863C599.076 527.35 597.126 527.351 595.663 527.351C594.688 527.351 593.713 527.351 592.25 527.351C591.275 527.351 590.3 527.35 588.837 526.863C583.474 525.888 577.623 523.45 570.797 520.037C557.633 512.724 543.494 500.047 529.355 484.933C515.215 470.306 502.051 454.216 488.887 437.639C463.046 403.997 439.643 366.943 415.265 328.913C411.365 323.062 407.952 317.212 404.051 311.848C404.539 311.361 404.539 311.361 405.027 310.873C406.489 309.411 407.952 308.436 409.415 306.485C410.877 305.023 411.852 303.072 411.852 301.122C411.852 298.684 410.877 295.759 408.927 294.296C406.977 292.834 404.051 292.346 401.614 293.809C401.614 293.809 397.713 295.759 394.788 297.222C387.962 286.495 380.649 276.257 373.335 265.53L373.823 265.043C375.285 263.58 376.748 262.605 378.211 260.655C379.673 259.192 380.649 257.242 380.649 255.291C380.649 252.854 379.673 249.928 377.723 248.466C375.773 247.003 372.847 246.515 370.41 247.978C370.41 247.978 366.509 249.928 363.096 251.878C356.27 242.615 349.445 233.351 342.131 224.087C343.594 222.625 345.057 221.162 346.519 219.699C347.982 218.237 348.957 216.287 348.957 214.336C348.957 211.898 347.982 209.461 345.544 207.998C343.106 206.535 340.668 206.535 338.231 207.51C338.231 207.51 334.818 209.461 331.405 211.411C324.091 202.635 316.778 194.346 308.977 186.545C309.952 185.083 310.927 184.107 311.902 182.645C312.877 180.695 313.365 178.744 313.365 176.794C313.365 174.356 311.415 171.918 308.977 170.943C306.539 169.968 303.614 169.968 301.664 171.431C301.664 171.431 299.713 172.894 297.276 174.844C293.863 171.431 290.937 168.506 287.524 165.093C283.136 161.192 278.748 157.292 274.36 153.391C274.36 153.391 274.36 153.391 274.36 152.904C275.335 150.953 276.31 149.491 277.286 147.54C277.773 145.59 278.261 143.64 277.773 141.69C277.286 139.252 274.848 137.302 272.41 136.814C269.972 136.327 267.047 136.814 265.584 138.764C265.584 138.764 263.146 141.202 261.196 143.64C260.709 143.152 260.221 142.665 259.246 142.177C249.007 134.864 237.306 128.526 224.141 124.625C210.977 120.237 196.35 118.774 182.211 121.7C168.072 124.625 155.395 131.451 145.644 140.227C137.356 147.54 130.53 155.829 125.167 164.605C124.191 166.068 123.216 167.53 122.241 169.481C119.316 174.356 116.39 179.232 113.953 183.62C111.027 188.983 108.589 194.834 105.664 200.197L124.191 209.948C127.117 205.073 130.042 200.685 132.968 196.297C135.405 192.884 137.356 189.958 139.793 186.545C142.231 183.132 143.206 182.157 143.694 181.182Z" fill="black"/>
<path d="M707.314 462.019C706.338 458.119 705.851 455.194 704.876 451.781C703.901 448.368 703.413 444.955 702.438 442.029C700.488 435.691 698.537 428.865 696.587 422.527C694.637 416.189 691.712 409.85 689.274 403.512C686.836 397.174 683.911 390.835 680.985 384.985C669.771 360.607 656.607 338.666 643.931 318.189C630.766 297.711 617.602 278.696 604.926 260.169L488.886 349.88C503.513 366.945 517.652 383.034 530.816 399.124C543.493 415.213 555.682 430.328 564.946 445.93C569.821 453.731 574.209 461.532 577.622 469.333C579.573 473.233 581.523 477.134 582.985 481.522C583.961 483.472 584.448 485.422 585.423 487.86L587.373 493.711C589.324 499.561 590.786 505.412 591.762 509.8C591.762 510.775 592.249 512.726 592.249 512.726C592.249 511.751 591.762 510.776 591.762 510.288C591.762 510.776 591.762 511.263 591.762 511.263C591.762 511.751 591.762 512.238 591.762 512.726C592.737 521.014 586.398 523.452 585.423 523.94C583.473 524.427 581.523 524.427 580.06 524.427C579.085 524.427 578.11 524.427 576.647 524.427C575.672 524.427 574.697 524.427 573.234 523.94C567.871 522.964 562.02 520.527 555.194 517.114C542.03 509.8 527.891 497.124 513.752 482.009C499.612 467.382 486.448 451.293 473.284 434.716C447.444 401.074 424.041 364.02 399.663 325.99C375.284 287.96 349.931 249.443 320.19 213.363C305.563 195.323 289.474 177.771 272.409 161.682C264.121 153.393 254.369 145.592 244.131 138.279C233.892 130.965 222.19 124.627 209.026 120.727C195.862 116.339 181.235 114.876 167.096 117.801C152.957 120.727 140.28 127.552 130.529 136.329C120.778 145.105 112.977 154.856 106.638 165.095C100.3 175.333 94.9369 185.572 90.5488 196.299L109.076 206.05C114.927 196.786 120.778 187.522 127.116 179.721C133.454 171.433 140.768 164.607 148.569 159.244C156.37 153.881 164.171 150.955 172.459 150.468C180.26 149.98 188.549 151.443 196.35 155.343C204.151 158.756 211.952 164.607 219.265 170.945C226.578 177.284 233.404 184.597 240.23 192.886C253.882 208.975 266.558 226.527 277.772 244.567C324.091 317.214 355.782 400.099 403.563 481.522C415.752 501.999 428.916 521.989 443.543 541.492C458.17 560.507 474.747 580.984 498.637 599.512C510.339 608.775 524.478 617.064 540.568 622.914C544.468 624.377 548.856 625.84 553.244 626.815C557.632 627.79 562.02 628.765 566.408 629.74C575.184 631.203 584.448 631.691 593.712 631.691C612.239 631.203 631.254 626.815 649.781 616.576C659.045 611.701 668.309 604.875 676.11 597.074C680.01 593.173 683.911 588.785 687.323 583.91C690.736 579.522 693.662 574.646 696.1 569.77C706.338 550.268 710.239 529.79 710.726 512.238C712.677 492.736 710.726 476.646 707.314 462.019Z" fill="#94C9FF"/>
<path d="M591.27 262.121C633.687 324.529 677.568 388.399 693.17 463.971C701.946 505.902 698.533 552.22 669.279 585.374C638.563 620.478 589.807 621.941 548.852 606.827C471.33 578.548 424.524 494.2 387.957 425.454C349.927 353.295 318.723 276.748 271.917 209.464C252.415 181.673 225.599 141.693 189.519 134.868C152.465 128.042 127.112 165.096 110.534 192.4C107.609 197.275 111.51 204.101 114.923 197.763C128.574 175.335 146.126 147.057 174.892 145.106C201.221 143.156 222.186 164.121 238.275 182.649C269.967 219.216 294.345 261.146 316.773 304.051C357.728 383.036 391.857 465.922 446.464 537.105C487.907 591.225 556.165 644.856 629.299 621.453C687.807 602.926 710.235 536.618 704.871 480.548C696.583 395.225 644.901 322.091 598.095 253.345C594.683 249.444 588.832 258.22 591.27 262.121Z" fill="#545AE7"/>
<path d="M613.221 219.701C602.494 208.487 585.917 204.587 570.315 204.587C547.4 205.074 525.46 212.875 506.445 225.552C487.43 237.741 471.34 254.318 457.201 271.87C443.549 288.935 432.335 307.462 435.261 330.865C438.186 355.731 454.763 375.721 480.604 378.646C493.768 380.109 507.42 377.184 519.609 372.795C545.45 363.044 571.778 346.955 591.28 327.452C606.882 311.85 619.071 292.835 623.947 271.383C627.36 252.855 625.41 232.865 613.221 219.701Z" fill="#94C9FF"/>
<path d="M582.502 236.767C575.189 230.916 563.975 229.454 553.736 230.916C538.622 232.866 523.995 239.692 511.806 248.956C499.617 258.22 489.378 269.434 480.602 281.623C471.826 293.324 465 305.513 467.926 319.652C470.851 334.767 482.552 345.493 499.617 345.493C508.393 345.493 517.169 342.568 525.458 338.667C542.035 330.379 559.099 318.677 571.776 305.026C581.527 294.299 589.328 281.623 591.766 267.971C593.229 256.269 591.278 244.08 582.502 236.767Z" fill="#545AE7"/>
<path d="M139.311 167.047C135.411 170.46 131.998 174.848 128.585 179.236C122.246 187.524 116.396 196.3 110.545 205.564L92.0176 195.813C96.8932 185.574 101.769 174.848 108.107 164.609C109.082 163.146 110.057 161.684 111.032 159.733C118.833 161.196 130.047 164.121 139.311 167.047Z" fill="#545AE7"/>
<path d="M263.642 136.818C263.154 134.38 260.717 132.43 258.279 131.942C255.841 131.455 252.916 131.942 251.453 133.893C251.453 133.893 247.552 138.281 244.627 141.206C242.677 143.156 240.727 145.594 240.239 148.52C239.752 151.445 240.727 154.858 243.164 156.808C245.602 158.758 249.015 159.246 251.941 158.271C253.891 157.296 255.353 155.833 256.816 154.37C258.279 152.42 259.254 150.47 260.229 149.007C261.204 147.057 262.179 145.594 263.154 143.644C263.642 141.206 264.13 138.768 263.642 136.818Z" fill="#545AE7"/>
<path d="M299.218 171.922C299.218 169.484 297.268 167.046 294.83 166.071C292.393 165.096 289.467 165.096 287.517 166.559C287.517 166.559 282.641 169.972 279.716 172.409C277.766 174.36 275.328 176.31 274.353 178.748C273.378 181.673 273.865 185.086 275.815 187.524C277.766 189.962 281.179 190.937 284.104 190.449C286.054 189.962 288.004 188.987 289.467 187.036C290.93 185.574 292.393 183.623 293.855 182.161C295.318 180.698 296.293 179.235 297.268 177.285C298.243 175.335 299.706 174.36 299.218 171.922Z" fill="#545AE7"/>
<path d="M334.328 210.439C334.328 208.001 333.353 205.563 330.915 204.101C328.965 202.638 326.04 202.638 323.602 203.613C323.602 203.613 318.726 206.539 314.826 208.489C312.388 209.952 309.95 211.414 308.488 213.852C307.025 216.777 307.025 220.19 308.488 222.628C309.95 225.066 313.363 227.016 316.289 226.529C318.239 226.529 320.677 225.553 322.139 224.091C324.09 222.628 325.552 221.165 327.015 219.703C328.478 218.24 329.94 216.777 331.403 215.315C333.353 214.34 334.328 212.389 334.328 210.439Z" fill="#545AE7"/>
<path d="M366.513 251.398C366.513 248.96 365.537 246.035 363.587 244.572C361.637 243.109 358.712 242.622 356.274 244.084C356.274 244.084 350.911 246.522 347.498 248.472C345.06 249.935 342.622 251.398 341.159 253.836C339.697 256.273 339.209 260.174 341.159 262.612C342.622 265.537 346.035 267 348.96 267C350.911 267 353.348 266.025 354.811 265.049C356.761 264.074 358.224 262.612 359.687 261.149C361.149 259.686 362.612 258.711 364.075 256.761C365.05 255.298 366.025 253.348 366.513 251.398Z" fill="#545AE7"/>
<path d="M397.712 296.737C397.712 294.299 396.737 291.373 394.786 289.911C392.836 288.448 389.911 287.961 387.473 289.423C387.473 289.423 382.11 291.861 378.697 293.811C376.259 295.274 373.821 296.737 372.359 299.174C370.896 301.612 370.408 305.513 372.359 307.951C374.309 310.388 377.234 312.339 380.16 312.339C382.11 312.339 384.548 311.363 386.01 310.388C387.961 309.413 389.423 307.951 390.886 306.488C392.349 305.025 393.811 304.05 395.274 302.1C396.737 301.125 397.712 299.174 397.712 296.737Z" fill="#545AE7"/>
<path d="M544.96 383.033C567.388 425.938 604.93 469.819 597.616 521.5C596.154 530.764 606.392 527.838 608.83 521.5C618.581 495.172 610.78 470.794 598.104 446.416C585.427 422.038 570.313 395.709 547.885 379.132C545.935 377.67 544.472 381.57 544.96 383.033Z" fill="white"/>
<path d="M390.894 403.023C403.083 432.764 415.272 462.018 431.362 489.809C444.526 512.237 462.078 544.903 487.919 554.167C490.356 555.142 492.307 551.242 491.332 549.291C477.192 524.913 452.814 506.386 437.212 482.495C420.635 456.655 406.496 428.864 392.844 401.073C392.357 400.098 390.406 402.535 390.894 403.023Z" fill="white"/>
<path d="M449.392 298.688C444.029 316.24 442.566 335.743 453.78 351.345C461.093 361.583 473.282 369.384 485.471 364.021C486.934 363.534 490.835 358.17 487.422 357.195C475.233 353.782 465.481 354.758 457.193 343.056C447.929 329.892 448.904 313.315 450.855 298.2C450.855 297.225 449.879 297.713 449.392 298.688Z" fill="white"/>
<path d="M547.396 246.034C555.685 251.885 568.361 254.81 569.824 266.999C570.799 277.725 561.535 282.601 560.073 291.864C560.073 292.84 561.048 293.327 561.535 293.327C571.287 289.914 577.625 272.85 576.65 263.098C575.675 248.472 561.535 242.621 548.371 243.596C547.396 244.084 546.421 245.546 547.396 246.034Z" fill="white"/>
<path d="M103.233 191.911C106.158 188.011 109.571 184.11 112.497 180.21C115.422 176.797 117.86 174.359 118.835 169.971C119.322 168.996 117.86 168.508 116.885 168.996C112.984 171.434 111.521 174.847 109.084 178.747C106.646 183.135 103.72 187.036 101.283 191.424C100.795 192.886 102.745 192.399 103.233 191.911Z" fill="white"/>
<path d="M669.777 568.796C680.504 557.582 687.33 543.93 689.767 528.328C691.23 518.577 693.668 494.199 682.454 489.323C680.991 488.835 679.529 490.786 679.529 491.761C678.066 502 683.429 511.263 683.429 521.99C683.917 538.567 678.553 554.169 668.802 567.333C667.827 568.308 668.315 570.258 669.777 568.796Z" fill="white"/>
<path opacity="0.5" fill-rule="evenodd" clip-rule="evenodd" d="M879.493 684.757H860.712L882.199 584.697C869.929 577.592 864.756 562.088 869.929 548.523C873.802 538.833 882.199 532.373 891.245 530.435L894.475 514.285C889.952 512.993 886.079 511.701 882.199 510.408C862.819 502.656 848.606 490.383 840.209 473.587C815.019 423.199 850.549 351.494 851.836 348.264L868.636 356.663C868.636 356.663 867.986 357.954 867.342 359.893L872.509 361.184C872.793 360.33 872.957 359.601 873.102 358.942C873.285 358.107 873.443 357.385 873.802 356.663C876.389 348.264 878.969 340.513 881.556 332.115C882.849 328.238 883.492 324.363 884.786 320.486C885.429 319.195 885.429 317.256 886.079 315.318C888.015 306.92 889.952 298.523 893.826 291.417C895.094 289.311 896.355 287.206 897.8 285.278C898.57 284.25 899.39 283.272 900.286 282.373C908.689 272.683 922.252 268.16 935.172 267.515C948.092 266.869 961.012 270.745 973.288 275.267C982.328 278.497 992.018 283.018 998.478 290.77C1005.59 298.523 1007.52 308.858 1008.17 319.84C1008.82 324.363 1008.17 328.238 1008.17 332.76C1007.85 335.009 1007.69 337.098 1007.53 339.186C1007.37 341.297 1007.2 343.407 1006.87 345.68C1006.58 348.309 1006.16 350.938 1005.73 353.567C1005.2 356.753 1004.65 359.937 1004.29 363.123C1003 371.519 1001.06 379.272 999.128 387.669L1004.29 388.962V388.316L1023.02 389.607C1022.98 389.844 1022.9 390.462 1022.79 391.416C1021.32 403.447 1013.33 468.997 972.638 500.718C957.782 512.993 939.045 518.161 919.022 517.515L915.149 534.956C925.482 542.708 930.005 556.274 924.838 569.194C920.315 580.176 910.625 586.636 900.286 587.927L879.493 684.757ZM864.112 365.059C855.716 385.086 840.209 431.597 856.359 463.897C865.406 481.985 883.492 492.967 909.976 496.843C930.005 500.073 946.798 496.197 961.012 485.215C990.725 461.959 1000.41 413.509 1003 394.776L997.185 393.484C996.617 395.189 996.175 396.895 995.746 398.545C995.204 400.646 994.68 402.657 993.955 404.466C991.375 412.864 988.145 420.615 984.915 428.367C982.978 433.535 980.391 438.704 977.805 443.872V444.517C973.931 452.269 969.408 460.667 963.598 467.127C959.075 472.295 953.908 477.463 947.448 480.693C935.172 487.798 920.315 488.445 906.746 483.923C904.165 483.277 901.579 482.632 898.999 482.632C884.786 481.338 871.216 470.357 864.756 457.437C862.176 452.269 860.882 446.455 859.589 440.642C858.296 431.597 858.296 423.199 858.946 414.156C858.946 412.217 858.946 409.634 859.589 407.696C860.239 404.466 860.882 400.589 861.526 397.359C863.469 388.962 865.406 381.209 867.986 372.813C868.636 370.874 869.279 368.289 869.929 366.353L864.112 365.059Z" fill="black"/>
<path d="M996.538 391.541L835.686 357.304" stroke="#D6614F" stroke-miterlimit="10"/>
<path d="M875.151 500.919L864.011 552.704L888.64 558.002L899.78 506.217L875.151 500.919Z" fill="#94C9FF"/>
<path d="M864.76 312.087C864.114 314.025 864.114 315.963 863.468 317.255C862.176 321.131 861.53 325.007 860.238 328.882C857.654 337.28 855.07 345.032 852.486 353.43C850.548 359.244 848.61 364.412 847.318 370.226C844.734 378.624 842.796 386.376 840.858 394.774C840.212 398.004 839.566 401.88 838.92 405.11C838.274 407.048 838.274 409.632 838.274 411.57C837.628 420.614 837.628 429.012 838.92 438.056C840.212 443.87 841.504 449.683 844.088 454.851C850.548 467.771 864.114 478.753 878.326 480.045C880.91 480.045 883.494 480.691 886.078 481.337C899.644 485.859 914.501 485.213 926.775 478.107C933.235 474.877 938.403 469.709 942.925 464.541C948.739 458.081 953.261 449.683 957.137 441.931C957.137 441.931 957.137 441.932 957.137 441.286C959.721 436.118 962.305 430.95 964.243 425.782C967.473 418.03 970.703 410.278 973.287 401.88C975.225 396.066 976.517 390.252 978.455 385.084C980.393 376.686 982.331 368.934 983.623 360.536C984.269 354.722 985.561 348.908 986.207 343.094C986.853 338.572 986.853 334.696 987.499 330.174C987.499 325.652 988.145 321.777 987.499 317.255C986.853 306.273 984.915 295.937 977.809 288.185C971.349 280.433 961.659 275.911 952.615 272.681C940.341 268.159 927.421 264.283 914.501 264.929C901.581 265.575 888.016 270.097 879.618 279.787C877.034 282.371 875.096 285.601 873.158 288.831C868.636 295.291 866.698 303.689 864.76 312.087Z" fill="#94C9FF"/>
<path d="M864.761 312.089L912.564 323.717L918.378 299.169L872.513 288.188C868.637 295.293 866.699 303.691 864.761 312.089Z" fill="#240522"/>
<path d="M860.236 328.884C857.652 337.282 855.068 345.034 852.484 353.432L904.164 365.705L909.978 341.158L860.236 328.884Z" fill="#240522"/>
<path d="M847.318 370.224C844.734 378.622 842.796 386.373 840.858 394.771L896.414 408.337L902.228 383.789L847.318 370.224Z" fill="#240522"/>
<path d="M838.274 412.213C837.628 421.257 837.628 429.655 838.92 438.699L888.016 450.327L893.829 425.779L838.274 412.213Z" fill="#240522"/>
<path d="M939.692 304.98L933.878 329.528L985.557 341.802C986.203 337.28 986.203 333.404 986.849 328.882C986.849 324.36 987.495 320.484 986.849 315.962L939.692 304.98Z" fill="#240522"/>
<path d="M931.938 347.613L926.124 372.161L978.45 385.081C980.388 376.683 982.325 368.931 983.617 360.533L931.938 347.613Z" fill="#240522"/>
<path d="M923.541 389.604L917.728 414.151L964.885 425.133C968.115 417.381 971.345 409.629 973.929 401.231L923.541 389.604Z" fill="#240522"/>
<path d="M915.145 431.594L909.331 456.141L942.923 463.893C948.737 457.434 953.259 449.036 957.135 441.284L915.145 431.594Z" fill="#240522"/>
<path d="M860.882 506.532C868.634 509.762 877.032 511.7 886.076 512.992C911.27 517.514 933.88 511.7 951.968 497.488C995.895 463.25 1001.71 389.607 1002.36 386.377L983.621 385.085C983.621 385.731 977.807 454.206 940.34 482.63C926.128 493.612 909.332 497.488 889.306 494.258C862.82 489.736 844.732 478.754 836.335 461.312C815.017 419.969 847.316 354.077 847.962 353.431L831.167 345.033C829.875 348.263 794.345 419.969 819.539 470.356C827.937 486.506 841.502 498.78 860.882 506.532Z" fill="#F75F28"/>
<path d="M848.607 544.643C842.793 560.147 850.545 577.589 865.403 583.403C880.906 589.217 898.348 581.465 904.162 566.607C909.976 551.103 902.224 533.661 887.366 527.847C871.862 522.033 854.421 529.139 848.607 544.643Z" fill="#F75F28"/>
<path fill-rule="evenodd" clip-rule="evenodd" d="M858.161 684.755H838.997L863.83 569.483L882.144 573.429L858.161 684.755Z" fill="#F75F28"/>
<path d="M872.51 537.538C860.882 533.016 852.484 545.29 852.484 555.626C852.484 564.67 865.404 582.758 874.448 573.068C875.094 572.422 875.74 570.484 875.094 569.192C875.094 568.546 874.448 567.9 874.448 567.254C874.448 566.608 873.802 565.962 873.156 565.962C867.342 564.67 861.528 562.086 858.944 556.272C855.714 547.874 862.82 542.06 870.572 540.768C872.51 540.768 873.802 538.184 872.51 537.538Z" fill="white"/>
<path d="M905.453 281.727C916.435 282.373 927.417 283.665 937.753 286.249C949.381 289.479 954.549 296.584 964.239 303.044C967.469 304.982 969.407 298.523 968.761 295.939C959.717 272.683 926.771 273.975 906.745 275.913C904.161 275.913 902.869 281.727 905.453 281.727Z" fill="white"/>
<path d="M864.109 463.25C878.967 476.17 907.391 487.798 924.833 473.586C926.125 472.294 928.063 469.064 925.479 467.772C921.603 466.48 919.019 467.772 915.143 468.418C909.329 469.064 903.515 469.71 897.701 469.064C886.719 468.418 877.029 464.542 867.339 458.728C865.401 458.082 862.171 461.958 864.109 463.25Z" fill="white"/>
</svg>
