<svg width="17" height="10" viewBox="0 0 17 10" fill="none" xmlns="http://www.w3.org/2000/svg">
<path d="M5.60298 4.24136L4.80749 5.42929L3.41366 4.20688L4.11231 3.16032C4.3449 3.31429 4.64753 3.31429 4.88012 3.16032L5.60298 4.24136Z" fill="#9D9DB6"/>
<path d="M13.1878 4.20688L11.7939 5.42929L10.9985 4.24136L11.7213 3.16032C11.9539 3.31429 12.2565 3.31429 12.4891 3.16032L13.1878 4.20688Z" fill="#9D9DB6"/>
<path d="M2.76691 8.6207H13.8345C14.2165 8.6207 14.5263 8.92949 14.5263 9.31035C14.5263 9.69121 14.2165 10 13.8345 10H2.76691C2.3849 10 2.07518 9.69121 2.07518 9.31035C2.07518 8.92949 2.3849 8.6207 2.76691 8.6207Z" fill="#9D9DB6"/>
<path d="M0.518795 2.41377C0.805317 2.41377 1.03759 2.18219 1.03759 1.89653C1.03759 1.61086 0.805317 1.37929 0.518795 1.37929C0.232272 1.37929 0 1.61086 0 1.89653C0 2.18219 0.232272 2.41377 0.518795 2.41377Z" fill="#9D9DB6"/>
<path d="M16.0826 2.41377C16.3692 2.41377 16.6014 2.18219 16.6014 1.89653C16.6014 1.61086 16.3692 1.37929 16.0826 1.37929C15.7961 1.37929 15.5639 1.61086 15.5639 1.89653C15.5639 2.18219 15.7961 2.41377 16.0826 2.41377Z" fill="#9D9DB6"/>
<path d="M8.30072 1.03448C8.58724 1.03448 8.81951 0.802906 8.81951 0.517242C8.81951 0.231577 8.58724 0 8.30072 0C8.0142 0 7.78193 0.231577 7.78193 0.517242C7.78193 0.802906 8.0142 1.03448 8.30072 1.03448Z" fill="#9D9DB6"/>
<path d="M4.49622 2.93105C4.68724 2.93105 4.84209 2.77666 4.84209 2.58622C4.84209 2.39578 4.68724 2.24139 4.49622 2.24139C4.30521 2.24139 4.15036 2.39578 4.15036 2.58622C4.15036 2.77666 4.30521 2.93105 4.49622 2.93105Z" fill="#9D9DB6"/>
<path d="M12.1052 2.93105C12.2962 2.93105 12.4511 2.77666 12.4511 2.58622C12.4511 2.39578 12.2962 2.24139 12.1052 2.24139C11.9142 2.24139 11.7593 2.39578 11.7593 2.58622C11.7593 2.77666 11.9142 2.93105 12.1052 2.93105Z" fill="#9D9DB6"/>
<path d="M15.6503 2.64311L13.71 8.44828H2.89142L0.951122 2.64311C0.98225 2.62621 1.01165 2.60656 1.03932 2.58449L4.72795 5.81897C4.7992 5.88173 4.90797 5.87483 4.97092 5.8038C4.97628 5.79776 4.98129 5.79121 4.98562 5.78449L7.97388 1.31552C8.18347 1.40052 8.41796 1.40052 8.62756 1.31552L11.6158 5.78449C11.668 5.86363 11.7747 5.8857 11.8541 5.83363C11.8609 5.82914 11.8674 5.82432 11.8735 5.81897L15.5621 2.58449C15.5898 2.60656 15.6192 2.62621 15.6503 2.64311V2.64311Z" fill="#9D9DB6"/>
</svg>
