<svg width="21" height="21" viewBox="0 0 21 21" fill="none" xmlns="http://www.w3.org/2000/svg">
<path d="M17.1714 15.6933L19.79 18.3027L17.1714 15.6933ZM17.1714 15.6933C18.6036 13.8878 19.3001 11.606 19.1188 9.3063C18.9351 6.97665 17.8644 4.80631 16.1276 3.24281C14.3908 1.6793 12.1203 0.841851 9.78422 0.903142C7.44814 0.964432 5.22464 1.91979 3.57221 3.57221C1.91979 5.22464 0.964432 7.44814 0.903142 9.78422C0.841851 12.1203 1.6793 14.3908 3.24281 16.1276C4.80631 17.8644 6.97665 18.9351 9.3063 19.1188C11.606 19.3001 13.8878 18.6036 15.6933 17.1714L18.3027 19.79L17.1714 15.6933ZM18.6437 20.0194C18.5161 19.9662 18.4002 19.8883 18.3029 19.7902L18.6437 20.0194ZM18.6437 20.0194C18.7714 20.0726 18.9083 20.1 19.0467 20.1M18.6437 20.0194L19.0467 20.1M19.0467 20.1C19.185 20.1 19.3219 20.0726 19.4496 20.0194M19.0467 20.1L19.4496 20.0194M19.4496 20.0194C19.5772 19.9663 19.693 19.8884 19.7903 19.7903M19.4496 20.0194L19.7903 19.7903M19.7903 19.7903C19.7902 19.7904 19.7901 19.7905 19.79 19.7906L19.7196 19.7196L19.7903 19.7903ZM19.7903 19.7903C19.8884 19.693 19.9663 19.5772 20.0194 19.4496C20.0726 19.3219 20.1 19.185 20.1 19.0467C20.1 18.9083 20.0726 18.7714 20.0194 18.6437C19.9662 18.5161 19.8883 18.4002 19.7902 18.3029L19.7903 19.7903ZM3.03327 10.0421C3.03327 8.6559 3.44433 7.30081 4.21447 6.14821C4.98461 4.99561 6.07925 4.09727 7.35995 3.56678C8.64065 3.0363 10.0499 2.8975 11.4095 3.16794C12.7691 3.43838 14.0179 4.10591 14.9981 5.08611C15.9783 6.06632 16.6459 7.31517 16.9163 8.67476C17.1867 10.0343 17.0479 11.4436 16.5174 12.7243C15.987 14.005 15.0886 15.0996 13.936 15.8698C12.7834 16.6399 11.4283 17.051 10.0421 17.051C8.18325 17.051 6.40052 16.3125 5.08611 14.9981C3.7717 13.6837 3.03327 11.901 3.03327 10.0421Z" fill="#B1FF74" stroke="#B1FF74" stroke-width="0.2"/>
</svg>
