<svg width="249" height="130" viewBox="0 0 249 130" fill="none" xmlns="http://www.w3.org/2000/svg">
<rect width="249" height="130" fill="#310E58"/>
<path d="M125.246 41.3636C108.776 41.3636 95.4252 51.946 95.4252 65C95.4252 78.054 108.776 88.6363 125.246 88.6363C141.715 88.6363 155.066 78.054 155.066 65C155.066 51.946 141.715 41.3636 125.246 41.3636ZM135.552 66.2529L120.642 73.6393C120.34 73.7886 119.997 73.8636 119.654 73.8636C119.343 73.8636 119.032 73.8023 118.751 73.6782C118.158 73.4179 117.79 72.9237 117.79 72.3864V57.6136C117.79 57.0763 118.158 56.5821 118.751 56.3218C119.343 56.0599 120.067 56.0758 120.642 56.3607L135.552 63.7471C136.097 64.0176 136.428 64.4908 136.428 65C136.428 65.5092 136.097 65.9825 135.552 66.2529Z" fill="#561F94"/>
</svg>
